<?xml version="1.0" encoding="UTF-8" standalone="no"?>
<svg width="454px" height="176px" viewBox="0 0 454 176" version="1.1" xmlns="http://www.w3.org/2000/svg" xmlns:xlink="http://www.w3.org/1999/xlink" xmlns:sketch="http://www.bohemiancoding.com/sketch/ns">
    <!-- Generator: Sketch 3.1.1 (8761) - http://www.bohemiancoding.com/sketch -->
    <title>Group</title>
    <desc>Created with Sketch.</desc>
    <defs></defs>
    <g id="Page-1" stroke="none" stroke-width="1" fill="none" fill-rule="evenodd" sketch:type="MSPage">
        <g id="Group" sketch:type="MSLayerGroup" transform="translate(2.000000, 2.000000)" stroke="#979797">
            <path d="M34.3046875,36.6132812 C25.2918018,46.6884347 7.54675409,54.0029285 1.40625,38.703125 C-7.92605942,15.4505552 40.4555735,-7.94272788 59.8984375,1.796875 C63.1734773,3.4374557 63.4662946,9.97848933 64.7695312,12.5898437 C72.0773615,27.2328744 51.8419865,53.4141775 45.9726562,65.1601562 C38.0198224,81.0757401 29.2028083,133.550883 35.1796875,151.503906 C39.6433174,164.911514 51.6465732,171.605469 63.7617188,171.605469" id="Path-1" stroke-width="3" sketch:type="MSShapeGroup"></path>
            <path d="M96.0976562,42.9101562 C101.46396,82.7041094 103.757812,127.328875 103.757812,169.324219" id="Path-2" stroke-width="3" sketch:type="MSShapeGroup"></path>
            <path d="M9.0234375,128.792969 C13.3911148,126.114521 15.5535115,123.000545 19.46875,120.828125 C33.0178764,113.310218 42.5619257,99.0059317 62.2890625,95.0664063 C87.1431986,90.1030148 120.234762,95.2375891 138.882812,77.0078125" id="Path-3" stroke-width="3" sketch:type="MSShapeGroup"></path>
            <path d="M119.125,132.472656 C124.231534,132.865564 129.731909,129.141413 133.007812,125.859375 C135.000929,123.862526 137.316217,122.242377 139.621094,119.9375 C142.624007,116.934586 146.083611,114.873421 148.675781,112.28125 C149.030128,111.926904 150.781791,107.177144 151.460938,108.148437 C156.064183,114.73185 143.717135,151.619479 147.976562,155.878906 C148.889321,156.791665 153.109885,154.164501 153.851562,153.792969 C163.463813,148.97786 178.179688,133.676275 178.179688,122.375 C178.179688,119.796357 179.796499,105.069936 181.917969,107.191406 C186.564731,111.838169 199.496815,140.749279 191.320312,148.925781 C189.252814,150.993279 186.070478,151.099119 183.3125,152.753906 C176.8203,156.649226 168.415665,143.420273 172.347656,139.488281 C173.369467,138.46647 212.71875,137.248052 212.71875,126.695312" id="Path-4" stroke-width="3" sketch:type="MSShapeGroup"></path>
            <path d="M210.808594,129.175781 C236.445093,113.578318 242.792969,82.1681173 242.792969,50.5390625" id="Path-5" stroke-width="3" sketch:type="MSShapeGroup"></path>
            <path id="Path-6" sketch:type="MSShapeGroup" d=""></path>
            <path d="M240.296875,80.7148438 C241.641763,90.9196147 236.751981,114.497415 243.78125,119.183594 C246.410701,120.936561 251.363576,121.285451 253.046875,122.96875 C253.570811,123.492686 257.416081,122.96875 258.269531,122.96875 C274.900906,122.96875 275.738773,109.327634 284.03125,101.035156 C288.00762,97.058786 294.236708,91.984375 299.699219,91.984375 L302.832031,91.984375 C287.83706,91.984375 277.085315,113.644531 291,113.644531 C292.776555,113.644531 301.125517,116.61667 303.054687,114.6875 C310.008169,107.734018 309.789152,96.1758262 301.140625,91.8515625" id="Path-7" stroke-width="3" sketch:type="MSShapeGroup"></path>
            <path d="M302.066406,92.8046875 C318.207732,94.5182291 325.714275,88.6021313 333.554688,80.7617188 C334.255691,80.0607157 351.412022,80.0018661 352.171875,80.7617188 C355.512305,84.1021487 340.768836,94.7610238 346.992188,100.984375 C355.933159,109.925347 367.711288,102.471269 371.695312,94.3320312" id="Path-8" stroke-width="3" sketch:type="MSShapeGroup"></path>
            <path d="M369.933594,95.4882812 C379.251119,94.1087066 381.870833,61.9571857 389.859375,67.5117188 C395.35274,71.3313242 386.460557,86.8980407 389.558594,91.5625 C389.796037,91.9199991 393.409786,91.5625 393.996094,91.5625 C407.6764,91.5625 406.526333,64.671875 406.089844,64.671875 C405.089844,64.671875 406.089844,66.671875 406.089844,67.671875 L406.089844,82.6367188 C406.089844,95.8198626 410.141017,113.971768 406.785156,127.414062 C405.36868,133.087927 383.381084,149.712858 378.023438,144.125 C375.34074,141.327031 376.980469,131.435187 376.980469,127.414062 C376.980469,114.925639 409.885037,103.192818 420.5,96.125 C429.09932,90.3992681 448.539452,59.4030548 450.089844,50.8671875" id="Path-9" stroke-width="3" sketch:type="MSShapeGroup"></path>
            <path d="M212.585938,65.5195312 C234.957394,67.60384 254.759767,61.7878153 275.46875,55.7695312" id="Path-10" stroke-width="3" sketch:type="MSShapeGroup"></path>
            <path d="M150.648438,86.5703125 C150.510052,90.0918917 150.802465,90.0290355 151.648438,92.3125" id="Path-11" stroke-width="3" sketch:type="MSShapeGroup"></path>
        </g>
    </g>
</svg>