<?xml version="1.0" encoding="utf-8"?>
<!-- Generator: Adobe Illustrator 18.0.0, SVG Export Plug-In . SVG Version: 6.00 Build 0)  -->
<!DOCTYPE svg PUBLIC "-//W3C//DTD SVG 1.1 Basic//EN" "http://www.w3.org/Graphics/SVG/1.1/DTD/svg11-basic.dtd">
<svg version="1.1" baseProfile="basic" id="Layer_1"
	 xmlns="http://www.w3.org/2000/svg" xmlns:xlink="http://www.w3.org/1999/xlink" x="0px" y="0px" viewBox="0 0 64 64"
	 xml:space="preserve">
<path d="M50.3,10.2c-1.1-0.1-2.1,0-3,0.3c-1.9-1.2-3.8-2.2-5.6-2.8c-3.9-1.6-7.7-2-12.2-1.3c-0.9,0.1-1.9,0.3-2.9,0.6
	c0.9,0.1,1.9,0.3,2.8,0.5c5.5,1.6,9.5,5.4,11.5,9c-0.2,0.7-0.4,1.4-0.4,2.2c-0.3,3.9,2,7.5,5.5,9l-0.8,10c3.8-1.5,7.6-3.4,9.6-7
	l0.3-4.1c2.1-1.5,3.5-3.9,3.7-6.6C59.2,15,55.4,10.6,50.3,10.2z M39.1,44.5c-1.5-1.7-3.7-2.8-6.1-3c-2.4-0.2-4.6,0.6-6.4,1.9
	L23.4,41l-5.8-4.2c-0.7,4-0.5,8.1,1.3,11.8l3.7,2.5l0.5,0.3c0.5,4.3,4,7.8,8.5,8.2c4.5,0.3,8.5-2.6,9.6-6.8c7.4-4,12-9,13.6-17.3
	C51.7,41,45.6,43.8,39.1,44.5z M15.5,28.7c3.7-0.9,6.6-4.2,6.9-8.1c0.1-0.7,0-1.4-0.1-2.1l2.9-1.3l3.6-1.6l2.8-1.3
	c-0.8-0.8-1.6-1.6-2.6-2.2c-1.1-0.8-2.1-1.4-3.4-1.9c-1.2-0.5-2.5-0.9-3.9-1.1l-5.1,2.4c-0.9-0.4-1.9-0.6-2.9-0.7
	c-5-0.4-9.5,3.4-9.9,8.5c-0.2,2.8,0.9,5.4,2.7,7.2C6.6,34.7,8.3,40,14.1,45.5C12.2,40.1,12.6,33.8,15.5,28.7z"/>
</svg>
